<svg version="1.1" id="Layer_1" xmlns="http://www.w3.org/2000/svg" xmlns:xlink="http://www.w3.org/1999/xlink" x="0px" y="0px" viewBox="0 0 131 72.8" style="enable-background:new 0 0 131 72.8;" xml:space="preserve">
 <style type="text/css">
  .st0{fill:#024DA0;}
	.st1{fill:#A8CB3A;}
 </style>
 <g>
  <path id="Fill-2" class="st0" d="M119.1,71c-0.1-2.8-0.1-5.7,0-8.5c0-0.6,0.5-1.1,0.8-1.7c0.6,0.3,1.3,0.5,1.6,0.9
		c1.1,1.6,2.1,3.1,3.3,5c1.1-1.7,2.2-3.3,3.1-4.8c1-1.6,1.7-1.7,2.9-0.4V72l-1.7,0.7c-0.2-0.5-0.4-1.1-0.5-1.7
		c0-1.8-0.1-3.6-0.5-5.4c-0.5,0.7-1,1.4-1.5,2.1c-1.6,2.4-2,2.4-3.7,0c-0.5-0.8-1.1-1.4-1.8-1.9c0,1.7,0.1,3.5,0,5.2
		c0,0.6-0.6,1.2-0.9,1.8C119.8,72.2,119.2,71.6,119.1,71z">
  </path>
  <path id="Fill-3" class="st0" d="M108.5,62.8c-0.5-0.1-0.8-0.6-1.3-1c0.4-0.3,0.8-0.9,1.1-0.9c2.5-0.1,4.9-0.1,7.4,0
		c0.4,0,0.7,0.7,1.1,1.1c-0.4,0.3-0.8,0.7-1.2,0.8c-0.9,0.1-1.7,0.1-2.6,0v7.6c0,0.8-0.6,2.2-0.9,2.2c-1.6,0-1.1-1.4-1.1-2.3v-7.5
		C110.2,62.9,109.4,62.9,108.5,62.8L108.5,62.8z">
  </path>
  <path id="Fill-4" class="st0" d="M69.8,29.8c-3.2-2.8-6.5-5.6-9.7-8.4c-1-0.6-1.3-1.8-0.7-2.7c0.2-0.3,0.4-0.6,0.7-0.7
		C66.5,12.3,73,6.7,79.5,1.1c0.8-0.6,1.8-1,2.8-1c6.4-0.1,12.8,0,19.3,0c1.2,0,2.4,0,2.6,2c-0.3,0.5-0.6,1-1,1.4
		C93,12.3,83,21.1,72.9,29.9c-0.8,0.8-2.1,0.9-2.9,0.1C69.9,29.9,69.8,29.9,69.8,29.8z">
  </path>
  <path id="Fill-5" class="st0" d="M91.7,72.8c-2.3-0.1-4.7-0.1-7,0c-2.7,0.3-5.3-0.7-7.2-2.7c-5.6-5.1-11.4-10-17.1-15
		c-1.8-1.6-1.8-2.4,0-4c3-2.6,6.1-5.2,9-7.9c0.9-1,2.4-1.2,3.4-0.3c0.1,0.1,0.2,0.2,0.3,0.3c9.9,8.6,19.8,17.3,29.6,25.9
		c0.6,0.5,0.8,1.7,1.1,2.6c-0.8,0.5-1.6,0.8-2.5,1C98.3,72.9,95,72.8,91.7,72.8z">
  </path>
  <path id="Fill-1" class="st1" d="M24.6,1c12.8,11.1,25.7,22.3,38.5,33.4c1.7,1.6,1.7,2.4,0,3.9C50.3,49.5,37.4,60.7,24.5,71.9
		c-0.7,0.5-1.5,0.8-2.4,0.8c-3.3,0.1-6.6,0-9.9,0H2.6c-0.9-0.2-1.7-0.5-2.5-1c0.4-0.9,0.5-2,1.1-2.6c9-7.9,18.1-15.8,27.1-23.7
		c2.7-2.3,5.3-4.6,8-6.9c2.2-1.9,2.2-2.3,0-4.2C24.8,24.2,13.1,14,1.4,3.8C0.7,3.3,0.2,2.6,0,1.7C-0.1,0.5,0.9,0,2.1,0h20.3
		C23.2,0.1,24,0.4,24.6,1z">
  </path>
 </g>
</svg>